<svg xmlns="http://www.w3.org/2000/svg" xmlns:xlink="http://www.w3.org/1999/xlink" version="1.1" id="v-2" width="1700" height="1000"><g id="v-3" class="viewport"><g id="j_15" model-id="fc447772-8057-4bb4-8675-317b0b5778f7" class="element istar Actor joint-theme-default" transform="translate(586,475)"><g id="v-144"><rect class="boundary" id="v-148" width="210" height="130" rx="100" ry="40" fill="rgb(230,230,230)" stroke="rgb(63,72,204)" stroke-width="4" stroke-dasharray="10,5,4,4" display="none"/><circle class="element actorKindMain" id="v-145" transform="translate(-20, -20)" r="40" cx="40" cy="40" fill="rgb(205,254,205)" stroke="rgb(63,72,204)" stroke-width="2"/><path/><text id="v-146" y="0.8em" display="null" xml:space="preserve" font-size="12" text-anchor="middle" fill="#000000" font-family="Arial, helvetica, sans-serif" transform="translate(20,13)"><tspan dy="0em" x="0" id="v-576" class="v-line">Logger</tspan></text></g></g><g id="j_13" model-id="f52096c2-9ad4-4b73-9140-ffe05480ec66" class="element istar Actor joint-theme-default" transform="translate(381,100)"><g id="v-126"><rect class="boundary" id="v-131" width="210" height="130" rx="100" ry="40" fill="rgb(230,230,230)" stroke="rgb(63,72,204)" stroke-width="4" stroke-dasharray="10,5,4,4" display="none"/><circle class="element actorKindMain" id="v-127" transform="translate(-20, -20)" r="40" cx="40" cy="40" fill="rgb(205,254,205)" stroke="rgb(63,72,204)" stroke-width="2"/><path/><text id="v-128" y="0.8em" display="null" xml:space="preserve" font-size="12" text-anchor="middle" fill="#000000" font-family="Arial, helvetica, sans-serif" transform="translate(20,7)"><tspan dy="0em" x="0" id="v-570" class="v-line">Body sensor</tspan><tspan dy="1em" x="0" id="v-571" class="v-line">network</tspan></text></g></g><g id="j_11" model-id="d8b8cfeb-991d-4278-b27a-5e86861204a0" class="element istar Actor joint-theme-default" transform="translate(315,458)"><g id="v-104"><rect class="boundary" id="v-109" width="210" height="130" rx="100" ry="40" fill="rgb(230,230,230)" stroke="rgb(63,72,204)" stroke-width="4" stroke-dasharray="10,5,4,4" display="none"/><circle class="element actorKindMain" id="v-105" transform="translate(-20, -20)" r="40" cx="40" cy="40" fill="rgb(205,254,205)" stroke="rgb(63,72,204)" stroke-width="2"/><path/><text id="v-106" y="0.8em" display="null" xml:space="preserve" font-size="12" text-anchor="middle" fill="#000000" font-family="Arial, helvetica, sans-serif" transform="translate(20,7)"><tspan dy="0em" x="0" id="v-562" class="v-line">Knowledge</tspan><tspan dy="1em" x="0" id="v-563" class="v-line">Base</tspan></text></g></g><g id="j_9" model-id="032edcae-62bb-4837-aeb3-7c0477f19577" class="element istar Actor joint-theme-default" transform="translate(905,466)"><g id="v-86"><rect class="boundary" id="v-90" width="210" height="130" rx="100" ry="40" fill="rgb(230,230,230)" stroke="rgb(63,72,204)" stroke-width="4" stroke-dasharray="10,5,4,4" display="none"/><circle class="element actorKindMain" id="v-87" transform="translate(-20, -20)" r="40" cx="40" cy="40" fill="rgb(205,254,205)" stroke="rgb(63,72,204)" stroke-width="2"/><path/><text id="v-88" y="0.8em" display="null" xml:space="preserve" font-size="12" text-anchor="middle" fill="#000000" font-family="Arial, helvetica, sans-serif" transform="translate(20,13)"><tspan dy="0em" x="0" id="v-554" class="v-line">Sensor Node</tspan></text></g></g><g id="j_7" model-id="89bf3606-49a3-405c-bb70-c7e84838a074" class="element istar Actor joint-theme-default" transform="translate(931,192)"><g id="v-68"><rect class="boundary" id="v-72" width="210" height="130" rx="100" ry="40" fill="rgb(230,230,230)" stroke="rgb(63,72,204)" stroke-width="4" stroke-dasharray="10,5,4,4" display="none"/><circle class="element actorKindMain" id="v-69" transform="translate(-20, -20)" r="40" cx="40" cy="40" fill="rgb(205,254,205)" stroke="rgb(63,72,204)" stroke-width="2"/><path/><text id="v-70" y="0.8em" display="null" xml:space="preserve" font-size="12" text-anchor="middle" fill="#000000" font-family="Arial, helvetica, sans-serif" transform="translate(20,13)"><tspan dy="0em" x="0" id="v-579" class="v-line">Central Node</tspan></text></g></g><g id="j_37" model-id="cbcb1844-08a3-4fa5-9c4a-384f3940210f" class="istar DependencyLink link joint-theme-default"><path class="connection" stroke="black" d="M 677 292 620 454" id="v-423" fill="none"/><path class="marker-source" fill="black" stroke="black" d="M 0 0 0 0" id="v-424" transform="translate(677,292) scale(1,1) rotate(-250.61547851562497)"/><path class="marker-target" fill="black" stroke="black" d="M 0 0 0 0" id="v-425" transform="translate(620,454) scale(1,1) rotate(-70.61548614501953)"/><path class="connection-wrap" d="M 677 292 620 454" id="v-426" fill="none"/><g class="labels" id="v-427"><g class="label" id="v-435" label-idx="0" transform="translate(648.5, 373)"><rect fill="none" rx="3" ry="3" x="-9.65625" y="-16.296875" width="19" height="27" transform="rotate(103.66460038055689)"/><text text-anchor="middle" font-size="24" stroke-width="2" font-family="sans-serif" id="v-436" y="0.8em" display="null" xml:space="preserve" transform="rotate(103.66460038055689) translate(0,-11)"><tspan dy="0em" x="0" id="v-437" class="v-line">D</tspan></text></g></g><g class="marker-vertices" id="v-428" style="display: none;"/><g class="marker-arrowheads" id="v-429" style="display: none;"><g id="v-432" transform="translate(677,292) scale(1,1) rotate(-250.61547851562497)"/><g id="v-433" transform="translate(620,454) scale(1,1) rotate(-70.61548614501953)"/></g><g class="link-tools" id="v-430" style="display: none;"><g id="v-431" transform="translate(663.7237548828125, 329.73248291015625) "/></g></g><g id="j_36" model-id="27245d1a-3b5f-4e03-b146-35036c20227f" class="istar DependencyLink link joint-theme-default"><path class="connection" stroke="black" d="M 910 221 724 264" id="v-408" fill="none"/><path class="marker-source" fill="black" stroke="black" d="M 0 0 0 0" id="v-409" transform="translate(910,221) scale(1,1) rotate(-193.01710510253906)"/><path class="marker-target" fill="black" stroke="black" d="M 0 0 0 0" id="v-410" transform="translate(724,264) scale(1,1) rotate(-13.017111778259263)"/><path class="connection-wrap" d="M 910 221 724 264" id="v-411" fill="none"/><g class="labels" id="v-412"><g class="label" id="v-420" label-idx="0" transform="translate(817, 242.50001525878906)"><rect fill="none" rx="3" ry="3" x="-9.65625" y="-16.296875" width="19" height="27" transform="rotate(167.45041789744664)"/><text text-anchor="middle" font-size="24" stroke-width="2" font-family="sans-serif" id="v-421" y="0.8em" display="null" xml:space="preserve" transform="rotate(167.45041789744664) translate(0,-11)"><tspan dy="0em" x="0" id="v-422" class="v-line">D</tspan></text></g></g><g class="marker-vertices" id="v-413" style="display: none;"/><g class="marker-arrowheads" id="v-414" style="display: none;"><g id="v-417" transform="translate(910,221) scale(1,1) rotate(-193.01710510253906)"/><g id="v-418" transform="translate(724,264) scale(1,1) rotate(-13.017111778259263)"/></g><g class="link-tools" id="v-415" style="display: none;"><g id="v-416" transform="translate(871.0278930664062, 230.00970458984375) "/></g></g><g id="j_34" model-id="a54ff9c1-8ad9-4702-9974-d9e3449275b8" class="istar DependencyLink link joint-theme-default"><path class="connection" stroke="black" d="M 299 238 366 161" id="v-381" fill="none"/><path class="marker-source" fill="black" stroke="black" d="M 0 0 0 0" id="v-382" transform="translate(299,238) scale(1,1) rotate(-48.97249603271484)"/><path class="marker-target" fill="black" stroke="black" d="M 0 0 0 0" id="v-383" transform="translate(366,161) scale(1,1) rotate(-228.9724884033203)"/><path class="connection-wrap" d="M 299 238 366 161" id="v-384" fill="none"/><g class="labels" id="v-385"><g class="label" id="v-393" label-idx="0" transform="translate(332.5, 199.5)"><rect fill="none" rx="3" ry="3" x="-9.65625" y="-16.296875" width="19" height="27" transform="rotate(-44.37040139158974)"/><text text-anchor="middle" font-size="24" stroke-width="2" font-family="sans-serif" id="v-394" y="0.8em" display="null" xml:space="preserve" transform="rotate(-44.37040139158974) translate(0,-11)"><tspan dy="0em" x="0" id="v-395" class="v-line">D</tspan></text></g></g><g class="marker-vertices" id="v-386" style="display: none;"/><g class="marker-arrowheads" id="v-387" style="display: none;"><g id="v-390" transform="translate(299,238) scale(1,1) rotate(-48.97249603271484)"/><g id="v-391" transform="translate(366,161) scale(1,1) rotate(-228.9724884033203)"/></g><g class="link-tools" id="v-388" style="display: none;"><g id="v-389" transform="translate(325.2568359375, 207.82421875) "/></g></g><g id="j_33" model-id="ac2c7bfe-5ce7-477c-a792-70474aad560b" class="istar DependencyLink link joint-theme-default"><path class="connection" stroke="black" d="M 326 437 290 264" id="v-366" fill="none"/><path class="marker-source" fill="black" stroke="black" d="M 0 0 0 0" id="v-367" transform="translate(326,437) scale(1,1) rotate(-101.75506591796874)"/><path class="marker-target" fill="black" stroke="black" d="M 0 0 0 0" id="v-368" transform="translate(290,264) scale(1,1) rotate(78.24493408203125)"/><path class="connection-wrap" d="M 326 437 290 264" id="v-369" fill="none"/><g class="labels" id="v-370"><g class="label" id="v-378" label-idx="0" transform="translate(308, 350.5)"><rect fill="none" rx="3" ry="3" x="-9.65625" y="-16.296875" width="19" height="27" transform="rotate(-107.89370924570427)"/><text text-anchor="middle" font-size="24" stroke-width="2" font-family="sans-serif" id="v-379" y="0.8em" display="null" xml:space="preserve" transform="rotate(-107.89370924570427) translate(0,-11)"><tspan dy="0em" x="0" id="v-380" class="v-line">D</tspan></text></g></g><g class="marker-vertices" id="v-371" style="display: none;"/><g class="marker-arrowheads" id="v-372" style="display: none;"><g id="v-375" transform="translate(326,437) scale(1,1) rotate(-101.75506591796874)"/><g id="v-376" transform="translate(290,264) scale(1,1) rotate(78.24493408203125)"/></g><g class="link-tools" id="v-373" style="display: none;"><g id="v-374" transform="translate(317.8508605957031, 397.8388977050781) "/></g></g><g id="j_31" model-id="70abac71-2c97-4f98-9e85-7e0225acce23" class="istar DependencyLink link joint-theme-default"><path class="connection" stroke="black" d="M 758 445 647 482" id="v-341" fill="none"/><path class="marker-source" fill="black" stroke="black" d="M 0 0 0 0" id="v-342" transform="translate(758,445) scale(1,1) rotate(-198.43495178222656)"/><path class="marker-target" fill="black" stroke="black" d="M 0 0 0 0" id="v-343" transform="translate(647,482) scale(1,1) rotate(-18.434947967529297)"/><path class="connection-wrap" d="M 758 445 647 482" id="v-344" fill="none"/><g class="labels" id="v-345"><g class="label" id="v-353" label-idx="0" transform="translate(702.5, 463.5)"><rect fill="none" rx="3" ry="3" x="-9.65625" y="-16.296875" width="19" height="27" transform="rotate(160.2971423385873)"/><text text-anchor="middle" font-size="24" stroke-width="2" font-family="sans-serif" id="v-354" y="0.8em" display="null" xml:space="preserve" transform="rotate(160.2971423385873) translate(0,-11)"><tspan dy="0em" x="0" id="v-355" class="v-line">D</tspan></text></g></g><g class="marker-vertices" id="v-346" style="display: none;"/><g class="marker-arrowheads" id="v-347" style="display: none;"><g id="v-350" transform="translate(758,445) scale(1,1) rotate(-198.43495178222656)"/><g id="v-351" transform="translate(647,482) scale(1,1) rotate(-18.434947967529297)"/></g><g class="link-tools" id="v-348" style="display: none;"><g id="v-349" transform="translate(720.0526733398438, 457.64910888671875) "/></g></g><g id="j_30" model-id="52d9cedf-8b37-4d38-a782-f18051fc8d5f" class="istar DependencyLink link joint-theme-default"><path class="connection" stroke="black" d="M 884 473 800 445" id="v-326" fill="none"/><path class="marker-source" fill="black" stroke="black" d="M 0 0 0 0" id="v-327" transform="translate(884,473) scale(1,1) rotate(-161.56504821777344)"/><path class="marker-target" fill="black" stroke="black" d="M 0 0 0 0" id="v-328" transform="translate(800,445) scale(1,1) rotate(18.4349365234375)"/><path class="connection-wrap" d="M 884 473 800 445" id="v-329" fill="none"/><g class="labels" id="v-330"><g class="label" id="v-338" label-idx="0" transform="translate(842, 459)"><rect fill="none" rx="3" ry="3" x="-9.65625" y="-16.296875" width="19" height="27" transform="rotate(-165.57024775024422)"/><text text-anchor="middle" font-size="24" stroke-width="2" font-family="sans-serif" id="v-339" y="0.8em" display="null" xml:space="preserve" transform="rotate(-165.57024775024422) translate(0,-11)"><tspan dy="0em" x="0" id="v-340" class="v-line">D</tspan></text></g></g><g class="marker-vertices" id="v-331" style="display: none;"/><g class="marker-arrowheads" id="v-332" style="display: none;"><g id="v-335" transform="translate(884,473) scale(0.5,0.5) rotate(-161.56504821777344)"/><g id="v-336" transform="translate(800,445) scale(0.5,0.5) rotate(18.4349365234375)"/></g><g class="link-tools" id="v-333" style="display: none;"><g id="v-334" transform="translate(865.0263671875, 466.6754455566406) scale(.5)"/></g></g><g id="j_28" model-id="3a3248e7-2351-4815-b053-720cb9503aaf" class="istar DependencyLink link joint-theme-default"><path class="connection" stroke="black" d="M 758 348 647 455" id="v-303" fill="none"/><path class="marker-source" fill="black" stroke="black" d="M 0 0 0 0" id="v-304" transform="translate(758,348) scale(1,1) rotate(-223.94882202148438)"/><path class="marker-target" fill="black" stroke="black" d="M 0 0 0 0" id="v-305" transform="translate(647,455) scale(1,1) rotate(-43.94881820678711)"/><path class="connection-wrap" d="M 758 348 647 455" id="v-306" fill="none"/><g class="labels" id="v-307"><g class="label" id="v-315" label-idx="0" transform="translate(702.5, 401.5)"><rect fill="none" rx="3" ry="3" x="-9.65625" y="-16.296875" width="19" height="27" transform="rotate(131.77547739348012)"/><text text-anchor="middle" font-size="24" stroke-width="2" font-family="sans-serif" id="v-316" y="0.8em" display="null" xml:space="preserve" transform="rotate(131.77547739348012) translate(0,-11)"><tspan dy="0em" x="0" id="v-317" class="v-line">D</tspan></text></g></g><g class="marker-vertices" id="v-308" style="display: none;"/><g class="marker-arrowheads" id="v-309" style="display: none;"><g id="v-312" transform="translate(758,348) scale(1,1) rotate(-223.94882202148438)"/><g id="v-313" transform="translate(647,455) scale(1,1) rotate(-43.94881820678711)"/></g><g class="link-tools" id="v-310" style="display: none;"><g id="v-311" transform="translate(729.2015991210938, 375.7606201171875) "/></g></g><g id="j_27" model-id="192d8084-08bd-4735-83fb-9acaf83021cd" class="istar DependencyLink link joint-theme-default"><path class="connection" stroke="black" d="M 910 240 775 334" id="v-288" fill="none"/><path class="marker-source" fill="black" stroke="black" d="M 0 0 0 0" id="v-289" transform="translate(910,240) scale(1,1) rotate(-214.84934997558594)"/><path class="marker-target" fill="black" stroke="black" d="M 0 0 0 0" id="v-290" transform="translate(775,334) scale(1,1) rotate(-34.84934997558593)"/><path class="connection-wrap" d="M 910 240 775 334" id="v-291" fill="none"/><g class="labels" id="v-292"><g class="label" id="v-300" label-idx="0" transform="translate(842.5, 287)"><rect fill="none" rx="3" ry="3" x="-9.65625" y="-16.296875" width="19" height="27" transform="rotate(147.77546698275955)"/><text text-anchor="middle" font-size="24" stroke-width="2" font-family="sans-serif" id="v-301" y="0.8em" display="null" xml:space="preserve" transform="rotate(147.77546698275955) translate(0,-11)"><tspan dy="0em" x="0" id="v-302" class="v-line">D</tspan></text></g></g><g class="marker-vertices" id="v-293" style="display: none;"/><g class="marker-arrowheads" id="v-294" style="display: none;"><g id="v-297" transform="translate(910,240) scale(1,1) rotate(-214.84934997558594)"/><g id="v-298" transform="translate(775,334) scale(1,1) rotate(-34.84934997558593)"/></g><g class="link-tools" id="v-295" style="display: none;"><g id="v-296" transform="translate(877.1737060546875, 262.8568115234375) "/></g></g><g id="j_25" model-id="62817ddd-f9fd-48fc-b4cc-e672b8afdb22" class="istar DependencyLink link joint-theme-default"><path class="connection" stroke="black" d="M 431 393 376 442" id="v-265" fill="none"/><path class="marker-source" fill="black" stroke="black" d="M 0 0 0 0" id="v-266" transform="translate(431,393) scale(1,1) rotate(-221.69813537597656)"/><path class="marker-target" fill="black" stroke="black" d="M 0 0 0 0" id="v-267" transform="translate(376,442) scale(1,1) rotate(-41.69813537597656)"/><path class="connection-wrap" d="M 431 393 376 442" id="v-268" fill="none"/><g class="labels" id="v-269"><g class="label" id="v-277" label-idx="0" transform="translate(403.5, 417.5)"><rect fill="none" rx="3" ry="3" x="-9.65625" y="-16.296875" width="19" height="27" transform="rotate(132.4551956201869)"/><text text-anchor="middle" font-size="24" stroke-width="2" font-family="sans-serif" id="v-278" y="0.8em" display="null" xml:space="preserve" transform="rotate(132.4551956201869) translate(0,-11)"><tspan dy="0em" x="0" id="v-279" class="v-line">D</tspan></text></g></g><g class="marker-vertices" id="v-270" style="display: none;"/><g class="marker-arrowheads" id="v-271" style="display: none;"><g id="v-274" transform="translate(431,393) scale(0.5,0.5) rotate(-221.69813537597656)"/><g id="v-275" transform="translate(376,442) scale(0.5,0.5) rotate(-41.69813537597656)"/></g><g class="link-tools" id="v-272" style="display: none;"><g id="v-273" transform="translate(416.0668029785156, 406.3041076660156) scale(.5)"/></g></g><g id="j_24" model-id="f82fbea2-f77f-4055-977d-d3bb4f24d7c6" class="istar DependencyLink link joint-theme-default"><path class="connection" stroke="black" d="M 565 466 464 393" id="v-250" fill="none"/><path class="marker-source" fill="black" stroke="black" d="M 0 0 0 0" id="v-251" transform="translate(565,466) scale(1,1) rotate(-144.1416473388672)"/><path class="marker-target" fill="black" stroke="black" d="M 0 0 0 0" id="v-252" transform="translate(464,393) scale(1,1) rotate(35.85836791992189)"/><path class="connection-wrap" d="M 565 466 464 393" id="v-253" fill="none"/><g class="labels" id="v-254"><g class="label" id="v-262" label-idx="0" transform="translate(514.5, 429.5)"><rect fill="none" rx="3" ry="3" x="-9.65625" y="-16.296875" width="19" height="27" transform="rotate(-149.03624346792648)"/><text text-anchor="middle" font-size="24" stroke-width="2" font-family="sans-serif" id="v-263" y="0.8em" display="null" xml:space="preserve" transform="rotate(-149.03624346792648) translate(0,-11)"><tspan dy="0em" x="0" id="v-264" class="v-line">D</tspan></text></g></g><g class="marker-vertices" id="v-255" style="display: none;"/><g class="marker-arrowheads" id="v-256" style="display: none;"><g id="v-259" transform="translate(565,466) scale(1,1) rotate(-144.1416473388672)"/><g id="v-260" transform="translate(464,393) scale(1,1) rotate(35.85836791992189)"/></g><g class="link-tools" id="v-257" style="display: none;"><g id="v-258" transform="translate(532.581298828125, 442.56866455078125) "/></g></g><g id="j_22" model-id="d306f216-845e-45f1-ad51-a31f81d8dd83" class="istar DependencyLink link joint-theme-default"><path class="connection" stroke="black" d="M 925 344 943 253" id="v-225" fill="none"/><path class="marker-source" fill="black" stroke="black" d="M 0 0 0 0" id="v-226" transform="translate(925,344) scale(1,1) rotate(-78.81120300292967)"/><path class="marker-target" fill="black" stroke="black" d="M 0 0 0 0" id="v-227" transform="translate(943,253) scale(1,1) rotate(-258.8111877441406)"/><path class="connection-wrap" d="M 925 344 943 253" id="v-228" fill="none"/><g class="labels" id="v-229"><g class="label" id="v-237" label-idx="0" transform="translate(934, 298.5)"><rect fill="none" rx="3" ry="3" x="-9.65625" y="-16.296875" width="19" height="27" transform="rotate(-70.41928833890289)"/><text text-anchor="middle" font-size="24" stroke-width="2" font-family="sans-serif" id="v-238" y="0.8em" display="null" xml:space="preserve" transform="rotate(-70.41928833890289) translate(0,-11)"><tspan dy="0em" x="0" id="v-239" class="v-line">D</tspan></text></g></g><g class="marker-vertices" id="v-230" style="display: none;"/><g class="marker-arrowheads" id="v-231" style="display: none;"><g id="v-234" transform="translate(925,344) scale(0.5,0.5) rotate(-78.81120300292967)"/><g id="v-235" transform="translate(943,253) scale(0.5,0.5) rotate(-258.8111877441406)"/></g><g class="link-tools" id="v-232" style="display: none;"><g id="v-233" transform="translate(928.880859375, 324.380126953125) scale(.5)"/></g></g><g id="j_21" model-id="49d04e76-78bf-4742-9638-7bb5e1e18319" class="istar DependencyLink link joint-theme-default"><path class="connection" stroke="black" d="M 924 445 923 370" id="v-210" fill="none"/><path class="marker-source" fill="black" stroke="black" d="M 0 0 0 0" id="v-211" transform="translate(924,445) scale(1,1) rotate(-90.76390075683594)"/><path class="marker-target" fill="black" stroke="black" d="M 0 0 0 0" id="v-212" transform="translate(923,370) scale(1,1) rotate(89.23611450195318)"/><path class="connection-wrap" d="M 924 445 923 370" id="v-213" fill="none"/><g class="labels" id="v-214"><g class="label" id="v-222" label-idx="0" transform="translate(923.5, 407.5)"><rect fill="none" rx="3" ry="3" x="-9.65625" y="-16.296875" width="19" height="27" transform="rotate(-102.1886332019319)"/><text text-anchor="middle" font-size="24" stroke-width="2" font-family="sans-serif" id="v-223" y="0.8em" display="null" xml:space="preserve" transform="rotate(-102.1886332019319) translate(0,-11)"><tspan dy="0em" x="0" id="v-224" class="v-line">D</tspan></text></g></g><g class="marker-vertices" id="v-215" style="display: none;"/><g class="marker-arrowheads" id="v-216" style="display: none;"><g id="v-219" transform="translate(924,445) scale(0.5,0.5) rotate(-90.76390075683594)"/><g id="v-220" transform="translate(923,370) scale(0.5,0.5) rotate(89.23611450195318)"/></g><g class="link-tools" id="v-217" style="display: none;"><g id="v-218" transform="translate(923.7333374023438, 425.00177001953125) scale(.5)"/></g></g><g id="j_19" model-id="92933e93-9583-4f35-93bc-efb30cada78b" class="istar DependencyLink link joint-theme-default"><path class="connection" stroke="black" d="M 612 92 442 115" id="v-185" fill="none"/><path class="marker-source" fill="black" stroke="black" d="M 0 0 0 0" id="v-186" transform="translate(612,92) scale(1,1) rotate(-187.7050018310547)"/><path class="marker-target" fill="black" stroke="black" d="M 0 0 0 0" id="v-187" transform="translate(442,115) scale(1,1) rotate(-7.7049970626831055)"/><path class="connection-wrap" d="M 612 92 442 115" id="v-188" fill="none"/><g class="labels" id="v-189"><g class="label" id="v-197" label-idx="0" transform="translate(527, 103.5)"><rect fill="none" rx="3" ry="3" x="-9.65625" y="-16.296875" width="19" height="27" transform="rotate(172.4567737096011)"/><text text-anchor="middle" font-size="24" stroke-width="2" font-family="sans-serif" id="v-198" y="0.8em" display="null" xml:space="preserve" transform="rotate(172.4567737096011) translate(0,-11)"><tspan dy="0em" x="0" id="v-199" class="v-line">D</tspan></text></g></g><g class="marker-vertices" id="v-190" style="display: none;"/><g class="marker-arrowheads" id="v-191" style="display: none;"><g id="v-194" transform="translate(612,92) scale(1,1) rotate(-187.7050018310547)"/><g id="v-195" transform="translate(442,115) scale(1,1) rotate(-7.7049970626831055)"/></g><g class="link-tools" id="v-192" style="display: none;"><g id="v-193" transform="translate(572.3611450195312, 97.36290740966797) "/></g></g><g id="j_18" model-id="2b1d0296-38bc-4084-a199-cd0927147cb8" class="istar DependencyLink link joint-theme-default"><path class="connection" stroke="black" d="M 910 195 678 100" id="v-170" fill="none"/><path class="marker-source" fill="black" stroke="black" d="M 0 0 0 0" id="v-171" transform="translate(910,195) scale(1,1) rotate(-157.73175048828125)"/><path class="marker-target" fill="black" stroke="black" d="M 0 0 0 0" id="v-172" transform="translate(678,100) scale(1,1) rotate(22.268249511718764)"/><path class="connection-wrap" d="M 910 195 678 100" id="v-173" fill="none"/><g class="labels" id="v-174"><g class="label" id="v-182" label-idx="0" transform="translate(794, 147.5)"><rect fill="none" rx="3" ry="3" x="-9.65625" y="-16.296875" width="19" height="27" transform="rotate(-159.91966436983242)"/><text text-anchor="middle" font-size="24" stroke-width="2" font-family="sans-serif" id="v-183" y="0.8em" display="null" xml:space="preserve" transform="rotate(-159.91966436983242) translate(0,-11)"><tspan dy="0em" x="0" id="v-184" class="v-line">D</tspan></text></g></g><g class="marker-vertices" id="v-175" style="display: none;"/><g class="marker-arrowheads" id="v-176" style="display: none;"><g id="v-179" transform="translate(910,195) scale(1,1) rotate(-157.73175048828125)"/><g id="v-180" transform="translate(678,100) scale(1,1) rotate(22.268249511718764)"/></g><g class="link-tools" id="v-177" style="display: none;"><g id="v-178" transform="translate(872.9832153320312, 179.84226989746094) "/></g></g><g id="j_8" model-id="b032b406-feca-468d-91c0-f1fd729e9ebc" class="element istar Goal joint-theme-default" fill="#ffffff" stroke="none" transform="translate(992,233)" display="none"><g class="rotatable" id="v-75" transform="rotate(0,45,17.5)"><g class="scalable" id="v-76" transform="scale(0.6923076923076923,1.1666666666666667)"><rect id="v-77" fill="rgb(205,254,205)" stroke="black" stroke-width="2" width="130" height="30" rx="20"/></g><text id="v-78" y="0.8em" display="null" xml:space="preserve" font-size="12" font-weight="bold" fill="#000000" text-anchor="middle" font-family="Arial, helvetica, sans-serif" transform="translate(45,-1.5)"><tspan dy="0em" x="0" id="v-548" class="v-line">Manage</tspan><tspan dy="1em" x="0" id="v-549" class="v-line">patients</tspan><tspan dy="1em" x="0" id="v-550" class="v-line">health status</tspan></text></g></g><g id="j_10" model-id="848a197f-53db-4f24-942c-a648b91d122f" class="element istar Goal joint-theme-default" fill="#ffffff" stroke="none" transform="translate(969,513)" display="none"><g class="rotatable" id="v-93" transform="rotate(0,45,17.5)"><g class="scalable" id="v-94" transform="scale(0.6923076923076923,1.1666666666666667)"><rect id="v-95" fill="rgb(205,254,205)" stroke="black" stroke-width="2" width="130" height="30" rx="20"/></g><text id="v-96" y="0.8em" display="null" xml:space="preserve" font-size="12" font-weight="bold" fill="#000000" text-anchor="middle" font-family="Arial, helvetica, sans-serif" transform="translate(45,4.5)"><tspan dy="0em" x="0" id="v-555" class="v-line">Manage vital</tspan><tspan dy="1em" x="0" id="v-556" class="v-line">signs</tspan></text></g></g><g id="j_12" model-id="f6b66658-4b7b-4879-8f32-a9366eceef42" class="element istar Goal joint-theme-default" fill="#ffffff" stroke="none" transform="translate(373,504)" display="none"><g class="rotatable" id="v-112" transform="rotate(0,45,17.5)"><g class="scalable" id="v-113" transform="scale(0.6923076923076923,1.1666666666666667)"><rect id="v-114" fill="rgb(205,254,205)" stroke="black" stroke-width="2" width="130" height="30" rx="20"/></g><text id="v-115" y="0.8em" display="null" xml:space="preserve" font-size="12" font-weight="bold" fill="#000000" text-anchor="middle" font-family="Arial, helvetica, sans-serif" transform="translate(45,-1.5)"><tspan dy="0em" x="0" id="v-564" class="v-line">Keep updated</tspan><tspan dy="1em" x="0" id="v-565" class="v-line">system</tspan><tspan dy="1em" x="0" id="v-566" class="v-line">knowledge </tspan></text></g></g><g id="j_14" model-id="22b451fa-1199-471e-aa60-8b9cf32fc759" class="element istar Goal joint-theme-default" fill="#ffffff" stroke="none" transform="translate(439,148)" display="none"><g class="rotatable" id="v-134" transform="rotate(0,45,17.5)"><g class="scalable" id="v-135" transform="scale(0.6923076923076923,1.1666666666666667)"><rect id="v-136" fill="rgb(205,254,205)" stroke="black" stroke-width="2" width="130" height="30" rx="20"/></g><text id="v-137" y="0.8em" display="null" xml:space="preserve" font-size="12" font-weight="bold" fill="#000000" text-anchor="middle" font-family="Arial, helvetica, sans-serif" transform="translate(45,10.5)"><tspan dy="0em" x="0" id="v-572" class="v-line">Assist patient</tspan></text></g></g><g id="j_16" model-id="23fd8d33-9c2e-47b8-aa46-8e2f44e0a650" class="element istar Goal joint-theme-default" fill="#ffffff" stroke="none" transform="translate(650,520)" display="none"><g class="rotatable" id="v-151" transform="rotate(0,45,17.5)"><g class="scalable" id="v-152" transform="scale(0.6923076923076923,1.1666666666666667)"><rect id="v-153" fill="rgb(205,254,205)" stroke="black" stroke-width="2" width="130" height="30" rx="20"/></g><text id="v-154" y="0.8em" display="null" xml:space="preserve" font-size="12" font-weight="bold" fill="#000000" text-anchor="middle" font-family="Arial, helvetica, sans-serif" transform="translate(45,4.5)"><tspan dy="0em" x="0" id="v-577" class="v-line">Log system</tspan><tspan dy="1em" x="0" id="v-578" class="v-line">data</tspan></text></g></g><g id="j_17" model-id="b90531bc-e1c2-47f4-b0b4-7a1c6850bdbd" class="element istar Goal joint-theme-default" fill="#ffffff" stroke="none" transform="translate(600,71)"><g class="rotatable" id="v-162" transform="rotate(0,45,17.5)"><g class="scalable" id="v-163" transform="scale(0.6923076923076923,1.1666666666666667)"><rect id="v-164" fill="rgb(205,254,205)" stroke="black" stroke-width="2" width="130" height="30" rx="20"/></g><text id="v-165" y="0.8em" display="null" xml:space="preserve" font-size="12" font-weight="bold" fill="#000000" text-anchor="middle" font-family="Arial, helvetica, sans-serif" transform="translate(45,4.5)"><tspan dy="0em" x="0" id="v-168" class="v-line">alert an</tspan><tspan dy="1em" x="0" id="v-169" class="v-line">emergency</tspan></text></g></g><g id="j_20" model-id="eea9dc66-6a2a-4f9b-86b3-16dd3a6a7574" class="element istar Goal joint-theme-default" fill="#ffffff" stroke="none" transform="translate(878,341)"><g class="rotatable" id="v-202" transform="rotate(0,45,17.5)"><g class="scalable" id="v-203" transform="scale(0.6923076923076923,1.1666666666666667)"><rect id="v-204" fill="rgb(205,254,205)" stroke="black" stroke-width="2" width="130" height="30" rx="20"/></g><text id="v-205" y="0.8em" display="null" xml:space="preserve" font-size="12" font-weight="bold" fill="#000000" text-anchor="middle" font-family="Arial, helvetica, sans-serif" transform="translate(45,4.5)"><tspan dy="0em" x="0" id="v-208" class="v-line">provide vital</tspan><tspan dy="1em" x="0" id="v-209" class="v-line">sign</tspan></text></g></g><g id="j_23" model-id="9e9c8a23-6ef9-4a88-b756-f52208f812fa" class="element istar Goal joint-theme-default" fill="#ffffff" stroke="none" transform="translate(401,364)"><g class="rotatable" id="v-242" transform="rotate(0,45,17.5)"><g class="scalable" id="v-243" transform="scale(0.6923076923076923,1.1666666666666667)"><rect id="v-244" fill="rgb(205,254,205)" stroke="black" stroke-width="2" width="130" height="30" rx="20"/></g><text id="v-245" y="0.8em" display="null" xml:space="preserve" font-size="12" font-weight="bold" fill="#000000" text-anchor="middle" font-family="Arial, helvetica, sans-serif" transform="translate(45,4.5)"><tspan dy="0em" x="0" id="v-248" class="v-line">store system</tspan><tspan dy="1em" x="0" id="v-249" class="v-line">data log</tspan></text></g></g><g id="j_26" model-id="ceaeca2a-ed45-4628-90a9-05959a58ea48" class="element istar Resource joint-theme-default" fill="#ffffff" stroke="none" transform="translate(720,325)"><g class="rotatable" id="v-282" transform="rotate(0,45,17.5)"><g class="scalable" id="v-283" transform="scale(0.6923076923076923,1.1666666666666667)"><rect id="v-284" fill="rgb(205,254,205)" stroke="black" stroke-width="2" width="130" height="30" rx="0"/></g><text id="v-285" y="0.8em" display="null" xml:space="preserve" font-size="12" font-weight="bold" fill="#000000" text-anchor="middle" font-family="Arial, helvetica, sans-serif" transform="translate(45,10.5)"><tspan dy="0em" x="0" id="v-287" class="v-line">system data</tspan></text></g></g><g id="j_29" model-id="7f1f51bb-74e0-4fc0-ba79-54d249d4cde4" class="element istar Resource joint-theme-default" fill="#ffffff" stroke="none" transform="translate(734,422)"><g class="rotatable" id="v-320" transform="rotate(0,45,17.5)"><g class="scalable" id="v-321" transform="scale(0.6923076923076923,1.1666666666666667)"><rect id="v-322" fill="rgb(205,254,205)" stroke="black" stroke-width="2" width="130" height="30" rx="0"/></g><text id="v-323" y="0.8em" display="null" xml:space="preserve" font-size="12" font-weight="bold" fill="#000000" text-anchor="middle" font-family="Arial, helvetica, sans-serif" transform="translate(45,10.5)"><tspan dy="0em" x="0" id="v-325" class="v-line">system data</tspan></text></g></g><g id="j_32" model-id="fb3da010-8eb3-4413-826c-432779bd187f" class="element istar Resource joint-theme-default" fill="#ffffff" stroke="none" transform="translate(243,235)"><g class="rotatable" id="v-358" transform="rotate(0,45,17.5)"><g class="scalable" id="v-359" transform="scale(0.6923076923076923,1.1666666666666667)"><rect id="v-360" fill="rgb(205,254,205)" stroke="black" stroke-width="2" width="130" height="30" rx="0"/></g><text id="v-361" y="0.8em" display="null" xml:space="preserve" font-size="12" font-weight="bold" fill="#000000" text-anchor="middle" font-family="Arial, helvetica, sans-serif" transform="translate(45,4.5)"><tspan dy="0em" x="0" id="v-364" class="v-line">patient health</tspan><tspan dy="1em" x="0" id="v-365" class="v-line">records</tspan></text></g></g><g id="j_35" model-id="d5ccbba9-89a4-4676-8b5a-f0ef87dc8b0c" class="element istar Goal joint-theme-default" fill="#ffffff" stroke="none" transform="translate(639,257)"><g class="rotatable" id="v-398" transform="rotate(0,45,17.5)"><g class="scalable" id="v-399" transform="scale(0.6923076923076923,1.1666666666666667)"><rect id="v-400" fill="rgb(205,254,205)" stroke="black" stroke-width="2" width="130" height="30" rx="20"/></g><text id="v-401" y="0.8em" display="null" xml:space="preserve" font-size="12" font-weight="bold" fill="#000000" text-anchor="middle" font-family="Arial, helvetica, sans-serif" transform="translate(45,-1.5)"><tspan dy="0em" x="0" id="v-405" class="v-line">provide</tspan><tspan dy="1em" x="0" id="v-406" class="v-line">patient health</tspan><tspan dy="1em" x="0" id="v-407" class="v-line">data</tspan></text></g></g><g class="remove-element" event="remove" id="v-541" transform="translate(639,257)" style="display: none;"><circle stroke="black" stroke-width="1" r="11" z="1000"/><path z="500" transform="scale(.8) translate(-16, -16)" d="M24.778,21.419 19.276,15.917 24.777,10.415 21.949,7.585 16.447,13.087 10.945,7.585 8.117,10.415 13.618,15.917 8.116,21.419 10.946,24.248 16.447,18.746 21.948,24.248z"/></g></g><defs id="v-4"/></svg>